PathFileType	4	(X/Y/Z)	C:\Users\°ÂÌØÂü\Desktop\20210112\bx_n_10_1802-Unnamed.trc
DataRate	CameraRate	NumFrames	NumMarkers	Units	OrigDataRate	OrigDataStartFrame	OrigNumFrames
50.00	50.00	       4	0	mm	50.00	65	       518
Frame#	Time	
		

65	1.280	-500.73752	-66.53216	1269.44885	-773.94440	-15.59673	923.00641	-772.28668	231.96811	927.96582	-804.65820	284.41727	782.23633	-682.83618	-38.60448	797.07654	-706.48010	282.01694	686.54272	-647.71564	258.77457	599.57428	-970.83514	92.11588	968.93292				-620.56158	259.15491	553.72516	-582.69385	-19.11259	498.21039	-566.74847	217.88535	510.01804	-672.10077	264.46970	489.83810	-786.06183	48.28010	176.90535	-703.62030	69.69209	215.39711	-652.49371	-70.91943	158.33693	-702.21521	151.50333	211.17117	-761.12122	225.76950	206.67455	-610.24365	-79.50581	155.20096	-882.46729	296.20953	144.75272	-666.68115	53.21658	160.32292	-595.17548	20.70676	170.87973	-671.93616	172.07353	156.09087	-590.40338	220.30359	174.07739	-660.66077	298.40640	157.46465	-623.84729	306.64923	158.55984	-555.18311	257.43332	164.90552	-527.94458	304.49655	146.67267	-283.44489	103.45430	1484.89868	-517.98364	278.73962	1271.08728	-517.61902	-72.39803	142.81351	-549.70563	-35.69259	164.06326	-790.83875	174.19238	186.61359				-694.23053	-62.45704	477.47095	-752.12280	-15.05481	206.19667	-875.61926	-78.51328	141.33492	-574.05725	96.54310	1067.15698	-798.61194	-91.85998	798.19019	-731.34137	-87.78484	702.15094	-643.62543	-64.75719	590.27100	-634.95587	-63.45158	547.14801	-679.00073	216.06096	804.91180	
66	1.300	-497.26831	-65.38109	1252.42078				-777.03467	230.04037	918.63391	-806.24213	285.25128	776.40210	-684.38239	-39.11258	793.65149	-705.53448	282.67935	682.53516	-644.67798	259.30643	596.94324	-974.03046	92.42609	959.60693				-616.64581	260.63306	552.40210	-578.87408	-19.50527	496.12891	-563.78754	218.53700	507.88864	-668.79132	264.79062	488.67255	-785.97339	48.41852	177.09578	-702.92834	69.81893	215.06056	-652.68207	-70.79818	158.40326	-701.96820	151.39317	211.21935	-760.92566	225.35725	206.97807	-610.21136	-79.58340	155.19012	-882.41229	296.21234	144.77406	-666.99481	53.60747	160.28833	-595.23206	20.86060	170.79538	-673.14331	172.50426	155.86423	-590.72882	220.23228	173.78352	-660.66394	298.44888	157.19080	-623.85803	306.36548	158.44194	-555.09119	257.39993	164.86192	-527.99475	304.39630	146.60587	-278.18021	103.72032	1465.46423	-513.91864	278.64081	1254.74951	-517.52472	-73.05000	143.10707	-549.58197	-36.01439	164.13983	-790.71149	173.90202	186.95328				-690.64569	-63.21520	476.47290	-751.73932	-15.13128	206.52458	-875.49469	-78.39877	141.12946	-574.39679	97.15144	1051.94775	-800.26184	-91.82663	791.85315	-730.77417	-88.16953	697.83746	-640.54761	-65.82382	588.44531	-630.70453	-64.68832	546.01520	-681.09430	215.76530	801.74255	
67	1.320	-493.33536	-65.17688	1235.70593				-778.24652	228.58897	906.85394	-807.51563	285.36008	769.13928	-686.17554	-38.64888	790.22174	-704.87311	283.55975	678.07623	-641.71460	260.28323	594.36768	-976.43573	92.63308	950.61200				-613.12732	261.26334	550.46478				-559.42621	219.47012	506.17377	-665.36328	265.56079	487.38116	-785.86212	48.63976	177.29253	-702.80005	70.07730	214.87488	-652.70947	-70.69318	158.34563	-701.87964	151.38901	211.06892	-759.94476	225.16974	206.61931	-610.39404	-79.61386	155.46948	-882.42505	296.15695	144.76091	-666.57996	53.91780	159.81036	-595.16309	20.93350	170.75945	-672.94977	172.22852	155.88048	-590.49237	220.21410	173.91986	-660.70068	298.31326	157.64142	-623.81842	306.34360	158.50937	-555.02563	257.25775	164.81078	-528.02759	304.34650	146.51938	-273.08090	103.88599	1446.18628	-509.78470	278.80643	1238.78064	-517.50458	-72.53724	143.08339	-549.60474	-35.91474	164.18256	-790.61218	173.82716	186.98318				-686.84784	-63.52293	475.57132	-751.24988	-14.75203	206.53745	-875.65912	-78.60304	141.30930	-574.89807	97.61602	1036.44788	-802.49652	-92.20555	785.67194	-729.78876	-88.38081	693.45203	-636.32690	-66.04073	586.24286	-626.86731	-65.16800	544.64087	-683.57495	216.58749	797.46008	
68	1.340	-490.05264	-64.48510	1218.71472	-570.94299	-20.35748	491.80222	-779.47644	227.61050	894.71210	-808.78656	285.98865	762.40393	-687.12091	-37.97599	786.51190	-703.70239	284.55173	673.31238	-637.98730	261.64999	591.76410	-979.51080	93.36865	941.09363				-609.01422	262.80786	548.57745				-555.67249	220.05263	504.29001	-661.67639	266.31818	486.20819	-785.38251	49.08429	177.53400	-702.24731	70.40353	214.46056	-652.52087	-70.60146	158.63533	-702.51697	151.21744	210.08789	-759.80145	224.93497	206.61931	-610.47437	-79.34062	155.18904	-882.50006	296.18253	144.69447	-666.53839	54.10368	159.57715	-595.22125	21.17205	170.58765	-671.57281	171.79865	156.06963	-590.13550	219.81645	173.41988	-660.44531	298.06033	157.91498	-623.79077	306.44592	158.58437	-554.74377	257.26575	164.70940	-527.95288	304.40765	146.69830	-268.47784	104.12247	1426.99255	-504.91711	278.64471	1222.25537	-517.58917	-72.53505	143.02773	-549.50134	-36.03056	163.95580	-790.40155	173.44266	187.10150				-682.82605	-63.72316	474.43097	-750.76935	-14.15785	206.53656	-875.65912	-78.60304	141.30930				-803.18195	-90.54919	778.63159	-728.70105	-88.73088	689.46747	-632.19403	-66.83815	583.51257	-622.03180	-65.50864	542.29315	-685.15784	217.10934	792.84094	
